<svg width="195" height="165" viewBox="0 0 195 165" fill="none" xmlns="http://www.w3.org/2000/svg">
<rect width="195" height="165" rx="10" fill="#009EA9"/>
<circle cx="12" cy="12" r="5" fill="white"/>
<circle cx="27" cy="12" r="5" fill="white"/>
<circle cx="42" cy="12" r="5" fill="white"/>
<path d="M116.995 90.8982C116.995 90.8982 116.779 90.6917 116.779 90.4851L102.778 76.0383L115.272 81.1978C115.703 80.3721 116.133 79.3406 116.995 78.7215L159 36H133.797C132.504 36 131.427 36.4128 130.566 37.2383L104.07 64.0681C100.408 67.783 94.376 67.783 90.7141 64.0681L64.2189 37.2383C63.3574 36.4128 62.2801 36 60.9878 36H36L74.774 75.832L75.8506 77.0702L77.7894 79.134L91.7914 93.5811L79.2975 88.4213C78.8667 89.2469 78.2209 90.2792 77.5744 90.8982L36.4308 132.588L36 133H61.6336C62.9259 133 64.0032 132.588 64.8648 131.762L90.499 105.551C94.161 101.836 100.193 101.836 103.854 105.551L129.489 131.762C130.35 132.588 131.427 133 132.72 133H158.354L157.923 132.588L116.995 90.8982Z" fill="white"/>
</svg>
